<svg width="14" height="8" viewBox="0 0 14 8" fill="none" xmlns="http://www.w3.org/2000/svg">
<path d="M7.07031 7.98828C7.34375 7.98047 7.57812 7.87891 7.78906 7.66797L13.7344 1.58984C13.9062 1.41016 14 1.19922 14 0.941406C14 0.417969 13.5938 0.0117187 13.0703 0.0117187C12.8203 0.0117187 12.5859 0.113281 12.4062 0.292969L7.07031 5.76172L1.73437 0.292968C1.55469 0.113281 1.32812 0.0117182 1.07031 0.0117182C0.546875 0.0117182 0.140625 0.417968 0.140625 0.941406C0.140625 1.19141 0.234375 1.41016 0.40625 1.58984L6.35937 7.66797C6.5625 7.88672 6.79687 7.98828 7.07031 7.98828Z" fill="#3C3C43" fill-opacity="0.6"/>
</svg>
