<svg width="190" height="51" viewBox="0 0 190 51" fill="none" xmlns="http://www.w3.org/2000/svg">
<rect width="190" height="51" rx="25.5" fill="url(#paint0_linear)"/>
<path d="M25.3335 31.1992C27.5996 31.1992 29.3843 30.1782 30.1313 28.5181C30.2559 28.2275 30.3223 27.9619 30.3223 27.6797C30.3223 27.0156 29.8574 26.5674 29.1519 26.5674C28.6206 26.5674 28.3052 26.7915 28.0479 27.356C27.5083 28.5596 26.562 29.1323 25.3003 29.1323C23.3828 29.1323 22.1792 27.5552 22.1792 24.9985C22.1792 22.4751 23.3994 20.8896 25.292 20.8896C26.4873 20.8896 27.4668 21.5039 28.0146 22.7241C28.2886 23.3052 28.6455 23.5542 29.21 23.5542C29.874 23.5542 30.314 23.1309 30.314 22.4751C30.314 22.1763 30.231 21.8525 30.0649 21.5371C29.2432 19.8105 27.5083 18.8145 25.2671 18.8145C21.8223 18.8145 19.6226 21.147 19.6226 25.0068C19.6226 28.875 21.7808 31.1992 25.3335 31.1992ZM33.1777 31.1743C33.8916 31.1743 34.3896 30.7427 34.3896 29.9126V25.9199C34.3896 24.7495 35.062 23.9443 36.2075 23.9443C37.3115 23.9443 37.876 24.6416 37.876 25.7871V29.9126C37.876 30.7427 38.3823 31.1743 39.0879 31.1743C39.8018 31.1743 40.2998 30.7427 40.2998 29.9126V25.2725C40.2998 23.2139 39.1709 21.9355 37.1953 21.9355C35.8423 21.9355 34.8711 22.5664 34.3979 23.687H34.3481V20.0845C34.3481 19.3042 33.9082 18.8394 33.1611 18.8394C32.4141 18.8394 31.9658 19.3042 31.9658 20.0845V29.9126C31.9658 30.7427 32.4722 31.1743 33.1777 31.1743ZM45.936 31.1909C48.6255 31.1909 50.3438 29.4727 50.3438 26.5425C50.3438 23.6538 48.6006 21.9106 45.936 21.9106C43.2715 21.9106 41.5283 23.6621 41.5283 26.5425C41.5283 29.4644 43.2466 31.1909 45.936 31.1909ZM45.936 29.3398C44.7407 29.3398 43.9854 28.3354 43.9854 26.5508C43.9854 24.7827 44.7573 23.7617 45.936 23.7617C47.1147 23.7617 47.8784 24.7827 47.8784 26.5508C47.8784 28.3354 47.123 29.3398 45.936 29.3398ZM55.6812 31.1909C58.3706 31.1909 60.0889 29.4727 60.0889 26.5425C60.0889 23.6538 58.3457 21.9106 55.6812 21.9106C53.0166 21.9106 51.2734 23.6621 51.2734 26.5425C51.2734 29.4644 52.9917 31.1909 55.6812 31.1909ZM55.6812 29.3398C54.4858 29.3398 53.7305 28.3354 53.7305 26.5508C53.7305 24.7827 54.5024 23.7617 55.6812 23.7617C56.8599 23.7617 57.6235 24.7827 57.6235 26.5508C57.6235 28.3354 56.8682 29.3398 55.6812 29.3398ZM64.9697 31.1909C67.3188 31.1909 68.9043 30.0454 68.9043 28.2773C68.9043 26.9492 68.124 26.252 66.2314 25.8535L64.7622 25.5381C63.874 25.3472 63.5254 25.04 63.5254 24.5752C63.5254 24.0024 64.0981 23.6123 64.9199 23.6123C65.7915 23.6123 66.2729 24.0273 66.6963 24.5669C66.9121 24.8242 67.2607 24.9404 67.5762 24.9404C68.1987 24.9404 68.5059 24.6001 68.5059 24.1104C68.5059 23.9941 68.481 23.8779 68.4478 23.7534C68.1572 22.749 66.8042 21.9106 64.9614 21.9106C62.6538 21.9106 61.1846 23.0063 61.1846 24.708C61.1846 26.0278 62.0645 26.916 63.8076 27.2896L65.3018 27.605C66.1733 27.7959 66.4805 28.0532 66.4805 28.5347C66.4805 29.124 65.9077 29.4893 65.0278 29.4893C64.1064 29.4893 63.5586 29.207 63.0854 28.5845C62.7534 28.2109 62.4214 28.0366 62.0312 28.0366C61.4668 28.0366 61.0518 28.4102 61.0518 28.9663C61.0518 29.0991 61.085 29.2568 61.1431 29.4146C61.5664 30.4604 62.9277 31.1909 64.9697 31.1909ZM74.2002 31.1909C75.9185 31.1909 77.2964 30.5435 77.8857 29.4478C77.9937 29.2485 78.0518 29.0493 78.0518 28.8584C78.0518 28.3022 77.6284 27.9702 77.1055 27.9702C76.79 27.9702 76.5742 28.0615 76.3169 28.3271C75.6611 29.0991 75.0801 29.3979 74.1919 29.3979C72.9634 29.3979 72.1665 28.5347 72.1665 27.2148V27.1069H77.2466C77.9189 27.1069 78.3008 26.7251 78.3008 26.0527C78.3008 23.6372 76.6074 21.9106 74.084 21.9106C71.4526 21.9106 69.7842 23.7285 69.7842 26.5923C69.7842 29.4727 71.4194 31.1909 74.2002 31.1909ZM72.1914 25.6211C72.2744 24.4839 73.0464 23.7036 74.1089 23.7036C75.1714 23.7036 75.9185 24.459 75.9683 25.6211H72.1914ZM84.4351 34.2954C86.3857 34.2954 87.415 33.4487 88.2451 31.1494L90.9761 23.7285C91.0591 23.4961 91.1089 23.2139 91.1089 23.0146C91.1089 22.3755 90.6274 21.9189 89.9302 21.9189C89.3076 21.9189 88.959 22.2095 88.7598 22.8818L86.8257 29.0576H86.7842L84.8501 22.8984C84.6509 22.1929 84.3188 21.9189 83.6797 21.9189C82.9658 21.9189 82.4263 22.3921 82.4263 23.0479C82.4263 23.2471 82.4761 23.5127 82.5674 23.7617L85.4062 31.249L85.2817 31.5645C84.9912 32.187 84.5347 32.3696 84.1113 32.3696C83.9453 32.3696 83.854 32.3613 83.688 32.3613C83.1401 32.3613 82.7998 32.6685 82.7998 33.1582C82.7998 33.8887 83.3726 34.2954 84.4351 34.2954ZM95.9897 31.1909C98.6792 31.1909 100.397 29.4727 100.397 26.5425C100.397 23.6538 98.6543 21.9106 95.9897 21.9106C93.3252 21.9106 91.582 23.6621 91.582 26.5425C91.582 29.4644 93.3003 31.1909 95.9897 31.1909ZM95.9897 29.3398C94.7944 29.3398 94.0391 28.3354 94.0391 26.5508C94.0391 24.7827 94.811 23.7617 95.9897 23.7617C97.1685 23.7617 97.9321 24.7827 97.9321 26.5508C97.9321 28.3354 97.1768 29.3398 95.9897 29.3398ZM104.813 31.166C106.158 31.166 107.038 30.5186 107.478 29.3979H107.528V29.9458C107.528 30.751 108.001 31.1743 108.698 31.1743C109.396 31.1743 109.869 30.751 109.869 29.9458V23.189C109.869 22.3589 109.371 21.9189 108.657 21.9189C107.951 21.9189 107.445 22.3589 107.445 23.189V27.1982C107.445 28.377 106.772 29.1489 105.693 29.1489C104.623 29.1489 104.033 28.5181 104.033 27.3311V23.189C104.033 22.3589 103.535 21.9189 102.821 21.9189C102.116 21.9189 101.609 22.3589 101.609 23.189V27.8374C101.609 29.9126 102.888 31.166 104.813 31.166ZM112.658 31.1743C113.396 31.1743 113.87 30.7178 113.87 29.9126V25.9614C113.87 24.9072 114.26 24.2847 115.364 24.2681C115.837 24.2598 116.186 24.1519 116.418 23.9526C116.65 23.7534 116.767 23.4629 116.767 23.0811C116.767 22.666 116.65 22.3672 116.418 22.1846C116.244 22.0352 115.986 21.9604 115.663 21.9604C114.774 21.9604 114.044 22.6162 113.812 23.7202H113.762V23.1392C113.762 22.3672 113.297 21.9189 112.616 21.9189C111.919 21.9189 111.446 22.3672 111.446 23.1392V29.9126C111.446 30.7178 111.927 31.1743 112.658 31.1743ZM122.868 31.1743C123.582 31.1743 124.08 30.751 124.08 29.9126V23.9277H125.042C125.549 23.9277 125.931 23.604 125.931 23.0312C125.931 22.4668 125.549 22.1431 125.042 22.1431H124.021V21.5786C124.021 20.9229 124.32 20.624 125.067 20.5991C125.25 20.5908 125.399 20.5659 125.532 20.5327C125.856 20.4331 126.022 20.2339 126.022 19.8936C126.022 19.3208 125.482 18.9141 124.196 18.9141C122.519 18.9307 121.656 19.7109 121.656 21.4707V22.1431H121.191C120.685 22.1431 120.303 22.4668 120.303 23.0312C120.303 23.604 120.685 23.9277 121.191 23.9277H121.656V29.9126C121.656 30.751 122.146 31.1743 122.868 31.1743ZM128.28 31.1743C129.019 31.1743 129.492 30.7178 129.492 29.9126V25.9614C129.492 24.9072 129.882 24.2847 130.986 24.2681C131.459 24.2598 131.808 24.1519 132.04 23.9526C132.272 23.7534 132.389 23.4629 132.389 23.0811C132.389 22.666 132.272 22.3672 132.04 22.1846C131.866 22.0352 131.608 21.9604 131.285 21.9604C130.396 21.9604 129.666 22.6162 129.434 23.7202H129.384V23.1392C129.384 22.3672 128.919 21.9189 128.238 21.9189C127.541 21.9189 127.068 22.3672 127.068 23.1392V29.9126C127.068 30.7178 127.549 31.1743 128.28 31.1743ZM136.423 31.166C137.768 31.166 138.647 30.5186 139.087 29.3979H139.137V29.9458C139.137 30.751 139.61 31.1743 140.308 31.1743C141.005 31.1743 141.478 30.751 141.478 29.9458V23.189C141.478 22.3589 140.98 21.9189 140.266 21.9189C139.561 21.9189 139.054 22.3589 139.054 23.189V27.1982C139.054 28.377 138.382 29.1489 137.303 29.1489C136.232 29.1489 135.643 28.5181 135.643 27.3311V23.189C135.643 22.3589 135.145 21.9189 134.431 21.9189C133.725 21.9189 133.219 22.3589 133.219 23.189V27.8374C133.219 29.9126 134.497 31.166 136.423 31.166ZM144.309 20.9976C145.039 20.9976 145.604 20.4414 145.604 19.7441C145.604 19.0386 145.039 18.4907 144.309 18.4907C143.578 18.4907 143.014 19.0386 143.014 19.7441C143.014 20.4414 143.578 20.9976 144.309 20.9976ZM144.309 31.1743C145.056 31.1743 145.521 30.7012 145.521 29.9126V23.189C145.521 22.4004 145.056 21.9189 144.309 21.9189C143.553 21.9189 143.097 22.4004 143.097 23.189V29.9126C143.097 30.7012 143.553 31.1743 144.309 31.1743ZM147.787 28.7256C147.787 30.2944 148.608 31.0996 150.227 31.0996H150.31C151.331 31.0996 152.028 30.7344 152.028 30.0205C152.028 29.4561 151.705 29.207 151.107 29.1406L150.949 29.124C150.426 29.0825 150.21 28.8169 150.21 28.186V23.9277H151.065C151.638 23.9277 151.995 23.5708 151.995 23.0146C151.995 22.4585 151.638 22.1016 151.065 22.1016H150.21V21.1138C150.21 20.3335 149.754 19.8521 148.999 19.8521C148.243 19.8521 147.787 20.3335 147.787 21.1138V22.1016H147.322C146.749 22.1016 146.384 22.4502 146.384 23.0146C146.384 23.5791 146.749 23.9277 147.322 23.9277H147.787V28.7256ZM156.81 31.1909C159.159 31.1909 160.744 30.0454 160.744 28.2773C160.744 26.9492 159.964 26.252 158.071 25.8535L156.602 25.5381C155.714 25.3472 155.365 25.04 155.365 24.5752C155.365 24.0024 155.938 23.6123 156.76 23.6123C157.631 23.6123 158.113 24.0273 158.536 24.5669C158.752 24.8242 159.101 24.9404 159.416 24.9404C160.039 24.9404 160.346 24.6001 160.346 24.1104C160.346 23.9941 160.321 23.8779 160.288 23.7534C159.997 22.749 158.644 21.9106 156.801 21.9106C154.494 21.9106 153.024 23.0063 153.024 24.708C153.024 26.0278 153.904 26.916 155.647 27.2896L157.142 27.605C158.013 27.7959 158.32 28.0532 158.32 28.5347C158.32 29.124 157.748 29.4893 156.868 29.4893C155.946 29.4893 155.398 29.207 154.925 28.5845C154.593 28.2109 154.261 28.0366 153.871 28.0366C153.307 28.0366 152.892 28.4102 152.892 28.9663C152.892 29.0991 152.925 29.2568 152.983 29.4146C153.406 30.4604 154.768 31.1909 156.81 31.1909Z" fill="white"/>
<path d="M176.15 25H176.15L176.15 24.9957C176.142 24.7179 176.035 24.479 175.824 24.2709L175.823 24.2697L170.489 19.1221L170.489 19.122L170.488 19.1209C170.304 18.9478 170.083 18.85 169.816 18.85C169.276 18.85 168.85 19.267 168.85 19.805C168.85 20.064 168.957 20.3047 169.141 20.4867L169.141 20.4867L169.143 20.488L173.83 25L169.143 29.512L169.143 29.512L169.141 29.5133C168.958 29.6948 168.85 29.9285 168.85 30.195C168.85 30.733 169.276 31.15 169.816 31.15C170.076 31.15 170.304 31.0527 170.488 30.8791L170.488 30.8791L170.489 30.8779L175.822 25.7248C176.042 25.5223 176.15 25.2804 176.15 25Z" fill="white" stroke="white" stroke-width="0.3"/>
<defs>
<linearGradient id="paint0_linear" x1="191.5" y1="25" x2="-4.43101e-07" y2="3.39415e-06" gradientUnits="userSpaceOnUse">
<stop stop-color="#FFCC00"/>
<stop offset="1" stop-color="#FF0099"/>
</linearGradient>
</defs>
</svg>
